<svg width="24" height="24" viewBox="0 0 24 24" fill="none" xmlns="http://www.w3.org/2000/svg">
<g clip-path="url(#clip0_1_417)">
<path fill-rule="evenodd" clip-rule="evenodd" d="M7.5 0H16.5C18.4891 0.000289251 20.3965 0.790559 21.803 2.19701C23.2094 3.60348 23.9997 5.51097 24 7.5V16.5C23.9997 18.4891 23.2094 20.3965 21.803 21.803C20.3965 23.2094 18.4891 23.9997 16.5 24H7.5C5.51097 23.9997 3.60348 23.2094 2.19701 21.803C0.790559 20.3965 0.000289251 18.4891 0 16.5V7.5C0.000289251 5.51097 0.790559 3.60348 2.19701 2.19701C3.60348 0.790559 5.51097 0.000289251 7.5 0ZM16.5 21.7505C17.8919 21.7491 19.2264 21.1956 20.2107 20.2115C21.1951 19.2274 21.7488 17.893 21.7505 16.5011V7.5C21.7488 6.10829 21.1952 4.77408 20.2111 3.78999C19.2271 2.80589 17.8928 2.25228 16.5011 2.25055H7.5C6.10829 2.25228 4.77408 2.80589 3.78999 3.78999C2.80589 4.77408 2.25228 6.10829 2.25055 7.5V16.5C2.25199 17.8921 2.80563 19.2267 3.78999 20.2111C4.77434 21.1955 6.109 21.7491 7.50109 21.7505H16.5Z" fill="#111010"/>
<path fill-rule="evenodd" clip-rule="evenodd" d="M6 12C6 10.8133 6.35189 9.65328 7.01119 8.66659C7.67047 7.67989 8.60755 6.91086 9.7039 6.45673C10.8003 6.0026 12.0067 5.88378 13.1705 6.11529C14.3344 6.3468 15.4035 6.91825 16.2427 7.75737C17.0818 8.59648 17.6532 9.66558 17.8847 10.8295C18.1162 11.9933 17.9974 13.1998 17.5432 14.2961C17.0892 15.3925 16.3201 16.3295 15.3334 16.9888C14.3468 17.6481 13.1867 18 12 18C10.4087 18 8.88257 17.3678 7.75736 16.2427C6.63214 15.1174 6 13.5913 6 12ZM8.25055 12C8.25033 12.7419 8.47013 13.4672 8.88217 14.0841C9.29421 14.7011 9.87995 15.182 10.5653 15.4659C11.2507 15.7499 12.0049 15.8243 12.7325 15.6796C13.4602 15.535 14.1286 15.1777 14.6531 14.6531C15.1777 14.1286 15.535 13.4602 15.6796 12.7325C15.8243 12.0049 15.7499 11.2507 15.4659 10.5653C15.182 9.87995 14.7011 9.29421 14.0841 8.88217C13.4672 8.47015 12.7419 8.25033 12 8.25055C11.0061 8.252 10.0532 8.64749 9.35032 9.35034C8.64748 10.0532 8.25199 11.0061 8.25055 12Z" fill="#111010"/>
<path d="M18.4497 6.34879C18.6078 6.34879 18.7624 6.30189 18.8939 6.21402C19.0254 6.12616 19.1279 6.00127 19.1884 5.85515C19.249 5.70904 19.2648 5.54826 19.2339 5.39314C19.203 5.23804 19.1269 5.09555 19.0151 4.98372C18.9033 4.87188 18.7608 4.79573 18.6057 4.76488C18.4505 4.73403 18.2897 4.74985 18.1437 4.81038C17.9976 4.8709 17.8727 4.97339 17.7848 5.10489C17.6969 5.23639 17.65 5.39099 17.65 5.54915C17.65 5.76123 17.7342 5.96461 17.8842 6.11458C18.0342 6.26454 18.2376 6.34879 18.4497 6.34879Z" fill="#111010"/>
</g>
<defs>
<clipPath id="clip0_1_417">
<rect width="24" height="24" fill="white"/>
</clipPath>
</defs>
</svg>
