<svg width="100" height="128" viewBox="0 0 100 128" fill="none" xmlns="http://www.w3.org/2000/svg">
<mask id="mask0_1_438" style="mask-type:alpha" maskUnits="userSpaceOnUse" x="0" y="0" width="100" height="128">
<path fill-rule="evenodd" clip-rule="evenodd" d="M58.3341 0H41.6675V38.2506L20.5365 11.203L8.75133 26.2878L29.8804 53.3332H-1.52588e-05V74.6663H29.883L8.75311 101.713L20.5381 116.798L41.6675 89.7523V128H58.3341V89.7539L79.462 116.798L91.2471 101.713L70.1173 74.6663H100V53.3332H70.12L91.249 26.2878L79.4639 11.203L58.3341 38.249V0Z" fill="white"/>
</mask>
<g mask="url(#mask0_1_438)">
<path fill-rule="evenodd" clip-rule="evenodd" d="M58.3341 0H41.6675V38.2506L20.5365 11.203L8.75133 26.2878L29.8804 53.3332H-1.52588e-05V74.6663H29.883L8.75311 101.713L20.5381 116.798L41.6675 89.7523V128H58.3341V89.7539L79.462 116.798L91.2471 101.713L70.1173 74.6663H100V53.3332H70.12L91.249 26.2878L79.4639 11.203L58.3341 38.249V0Z" fill="#FF9B3D"/>
<path d="M41.6675 -5.98431e-05V-2.6123H39.6267V-5.98431e-05H41.6675ZM58.3341 -5.98431e-05H60.3749V-2.6123H58.3341V-5.98431e-05ZM41.6675 38.2505L40.2245 40.0976L43.7084 44.5573V38.2505H41.6675ZM20.5365 11.2029L21.9796 9.3558L20.5365 7.50865L19.0934 9.3558L20.5365 11.2029ZM8.75133 26.2877L7.30827 24.4407L5.86519 26.2877L7.30827 28.1351L8.75133 26.2877ZM29.8804 53.3331V55.9453H34.8073L31.3235 51.486L29.8804 53.3331ZM-1.62125e-05 53.3331V50.7209H-2.04083V53.3331H-1.62125e-05ZM-1.62125e-05 74.6663H-2.04083V77.2785H-1.62125e-05V74.6663ZM29.883 74.6663L31.3261 76.5134L34.81 72.054H29.883V74.6663ZM8.75311 101.713L7.31002 99.8655L5.86696 101.713L7.31002 103.56L8.75311 101.713ZM20.5381 116.798L19.0951 118.645L20.5381 120.492L21.9812 118.645L20.5381 116.798ZM41.6675 89.7522H43.7084V83.4455L40.2245 87.9049L41.6675 89.7522ZM41.6675 128H39.6267V130.612H41.6675V128ZM58.3341 128V130.612H60.3749V128H58.3341ZM58.3341 89.7538L59.7771 87.9067L56.2932 83.4473V89.7538H58.3341ZM79.462 116.798L78.019 118.645L79.462 120.492L80.9051 118.645L79.462 116.798ZM91.2471 101.713L92.6902 103.56L94.1332 101.713L92.6902 99.8655L91.2471 101.713ZM70.1173 74.6663V72.054H65.1902L68.6743 76.5134L70.1173 74.6663ZM100 74.6663V77.2785H102.041V74.6663H100ZM100 53.3331H102.041V50.7209H100V53.3331ZM70.12 53.3331L68.6767 51.486L65.1928 55.9453H70.12V53.3331ZM91.249 26.2877L92.692 28.1351L94.1351 26.2877L92.692 24.4407L91.249 26.2877ZM79.4639 11.2029L80.9069 9.3558L79.4639 7.50865L78.0208 9.3558L79.4639 11.2029ZM58.3341 38.249H56.2932V44.5554L59.7771 40.0961L58.3341 38.249ZM41.6675 2.61219H58.3341V-2.6123H41.6675V2.61219ZM43.7084 38.2505V-5.98431e-05H39.6267V38.2505H43.7084ZM19.0934 13.0501L40.2245 40.0976L43.1106 36.4034L21.9796 9.3558L19.0934 13.0501ZM10.1944 28.1351L21.9796 13.0501L19.0934 9.3558L7.30827 24.4407L10.1944 28.1351ZM31.3235 51.486L10.1944 24.4407L7.30827 28.1351L28.4373 55.1802L31.3235 51.486ZM-1.62125e-05 55.9453H29.8804V50.7209H-1.62125e-05V55.9453ZM2.0408 74.6663V53.3331H-2.04083V74.6663H2.0408ZM29.883 72.054H-1.62125e-05V77.2785H29.883V72.054ZM10.1962 103.56L31.3261 76.5134L28.44 72.8191L7.31002 99.8655L10.1962 103.56ZM21.9812 114.95L10.1962 99.8655L7.31002 103.56L19.0951 118.645L21.9812 114.95ZM40.2245 87.9049L19.0951 114.95L21.9812 118.645L43.1106 91.5993L40.2245 87.9049ZM43.7084 128V89.7522H39.6267V128H43.7084ZM58.3341 125.388H41.6675V130.612H58.3341V125.388ZM56.2932 89.7538V128H60.3749V89.7538H56.2932ZM80.9051 114.95L59.7771 87.9067L56.891 91.6009L78.019 118.645L80.9051 114.95ZM89.8041 99.8655L78.019 114.95L80.9051 118.645L92.6902 103.56L89.8041 99.8655ZM68.6743 76.5134L89.8041 103.56L92.6902 99.8655L71.5604 72.8191L68.6743 76.5134ZM100 72.054H70.1173V77.2785H100V72.054ZM97.9592 53.3331V74.6663H102.041V53.3331H97.9592ZM70.12 55.9453H100V50.7209H70.12V55.9453ZM89.8059 24.4407L68.6767 51.486L71.563 55.1802L92.692 28.1351L89.8059 24.4407ZM78.0208 13.0501L89.8059 28.1351L92.692 24.4407L80.9069 9.3558L78.0208 13.0501ZM59.7771 40.0961L80.9069 13.0501L78.0208 9.3558L56.891 36.4018L59.7771 40.0961ZM56.2932 -5.98431e-05V38.249H60.3749V-5.98431e-05H56.2932Z" fill="#111010"/>
</g>
</svg>
