<svg width="24" height="24" viewBox="0 0 24 24" fill="none" xmlns="http://www.w3.org/2000/svg">
<g clip-path="url(#clip0_1_414)">
<path d="M24 2.82004C23.0967 3.3014 22.1415 3.62113 21.1636 3.76937C22.1938 3.02305 22.9643 1.84085 23.3291 0.446708C22.3646 1.14592 21.3094 1.63836 20.2091 1.9027C19.5344 1.02315 18.6588 0.411817 17.6962 0.148073C16.7336 -0.115671 15.7284 -0.0196465 14.8109 0.423681C13.8936 0.867009 13.1064 1.63717 12.5517 2.63417C11.9969 3.63118 11.7002 4.80898 11.7 6.0147C11.6945 6.47558 11.7311 6.93576 11.8091 7.3867C9.85223 7.26853 7.9378 6.64702 6.19089 5.56281C4.44397 4.47858 2.90389 2.95606 1.67127 1.09471C1.03795 2.41765 0.841756 3.9862 1.12276 5.47997C1.40378 6.97374 2.1408 8.28004 3.18327 9.13204C2.40435 9.10682 1.64183 8.85302 0.96 8.39204V8.45737C0.961313 9.84616 1.35407 11.192 2.07215 12.2683C2.79023 13.3446 3.78979 14.0857 4.90255 14.3668C4.48148 14.5026 4.04749 14.5694 3.612 14.5654C3.29933 14.5722 2.98699 14.5377 2.68036 14.4628C2.99828 15.6561 3.61105 16.6998 4.43432 17.4501C5.25758 18.2004 6.25087 18.6202 7.27745 18.6521C5.53588 20.3168 3.38803 21.22 1.17709 21.2174C0.783662 21.2201 0.390493 21.1921 0 21.1334C2.24991 22.9052 4.87154 23.8425 7.548 23.8321C9.39036 23.8478 11.2169 23.416 12.9216 22.5617C14.6263 21.7073 16.175 20.4476 17.4779 18.8554C18.7809 17.2633 19.812 15.3708 20.5114 13.2874C21.2108 11.2042 21.5644 8.97181 21.552 6.72004C21.552 6.45337 21.5444 6.19737 21.5335 5.9427C22.5041 5.09372 23.34 4.03552 24 2.82004Z" fill="#111010"/>
</g>
<defs>
<clipPath id="clip0_1_414">
<rect width="24" height="24" fill="white"/>
</clipPath>
</defs>
</svg>
